<svg id="Layer_1" data-name="Layer 1" xmlns="http://www.w3.org/2000/svg" viewBox="0 0 387.52 144" preserveAspectRatio="none"><defs><style>.cls-1{fill:none;}.cls-2{fill:#f88d2a;}.cls-3{fill:#c028b9;}.cls-4{fill:#00abc8;}.cls-5{fill:#0a1f8f;}</style></defs><rect class="cls-1" x="-0.08" width="387.52" height="144"/><path class="cls-2" d="M52.91,84.05H38.21a6.18,6.18,0,1,1,0-12.35h14.7a6.18,6.18,0,1,1,0,12.35Z"/><path class="cls-3" d="M65.87,111.78a6.17,6.17,0,0,1-6.18-6.17V90.83a6.18,6.18,0,1,1,12.35,0v14.78A6.17,6.17,0,0,1,65.87,111.78Z"/><path class="cls-4" d="M65.87,71.09a6.18,6.18,0,0,1-6.18-6.18V50.15a6.18,6.18,0,1,1,12.35,0V64.91A6.18,6.18,0,0,1,65.87,71.09Z"/><path class="cls-5" d="M87.2,84H78.83a6.18,6.18,0,0,1,0-12.35H87.2a15.57,15.57,0,0,0,0-31.14H78.13a6.18,6.18,0,1,1,0-12.35H87.2A27.92,27.92,0,0,1,87.2,84Z"/><path class="cls-5" d="M227.29,83.91a6.18,6.18,0,0,1-6.18-6.17V53.32a13,13,0,1,0-25.91,0V77.74a6.18,6.18,0,0,1-12.36,0V53.32a25.32,25.32,0,0,1,50.63,0V77.74A6.18,6.18,0,0,1,227.29,83.91Z"/><path class="cls-5" d="M148.82,84.31A28.07,28.07,0,1,1,176.9,56.24a6.18,6.18,0,0,1-6.18,6.18H134.37a15.73,15.73,0,0,0,24,6.33,6.18,6.18,0,1,1,7.49,9.82A27.8,27.8,0,0,1,148.82,84.31ZM134.37,50.06h28.91a15.72,15.72,0,0,0-28.91,0Z"/><path class="cls-5" d="M283.29,63a2.82,2.82,0,0,0-.07-.31C283,62,281,55.22,272.28,52.17a38.77,38.77,0,0,0-9.71-1.7c-3.43-.29-6.39-.54-8.33-1.93-1.33-1-1.68-1.48-1.73-1.75a4.3,4.3,0,0,1,.78-3.6c1.39-1.72,4.4-2.67,8.49-2.67a14,14,0,0,1,10.39,4.14h0a6.33,6.33,0,0,0,5.63,2.39,6.17,6.17,0,0,0,4.2-9.87h0c-2.55-3.35-9.67-9-20.22-9-10.12,0-15.43,3.95-18.1,7.26a16.56,16.56,0,0,0-3.25,14c1.13,5.23,5.1,8.09,6.59,9.16,4.71,3.39,9.92,3.83,14.51,4.22a28.53,28.53,0,0,1,6.67,1,5.45,5.45,0,0,1,3.08,2.2,4.31,4.31,0,0,1-1,3.15c-1.53,1.9-4.69,2.94-8.89,2.94-7.08,0-10.4-3.45-10.92-4.05a6.25,6.25,0,0,0-5.68-2.49,6.18,6.18,0,0,0-5.31,7.62,6.26,6.26,0,0,0,1,2.16h0c.67.93,7,9.12,20.9,9.12,10.27,0,15.73-4.11,18.51-7.55A16.54,16.54,0,0,0,283.29,63ZM271.22,65.6v0h0Z"/><path class="cls-5" d="M288,79.43a2.32,2.32,0,0,0-2.4,2.34v.29a2.39,2.39,0,0,0,4.77,0v-.29A2.31,2.31,0,0,0,288,79.43Z"/><path class="cls-5" d="M305.08,79.11a1.93,1.93,0,0,0-1.18.46,4.73,4.73,0,0,1-3.18,1.28,4.3,4.3,0,0,1-4.21-4.59,4.26,4.26,0,0,1,4.07-4.5A4.45,4.45,0,0,1,303.63,73a2.13,2.13,0,0,0,1.25.42,1.94,1.94,0,0,0,2-1.94,2,2,0,0,0-.67-1.48,8,8,0,0,0-5.57-2,8.21,8.21,0,0,0-8.29,8.32v.06a8.14,8.14,0,0,0,8.23,8.23,7.77,7.77,0,0,0,5.77-2.25,1.71,1.71,0,0,0,.62-1.36A1.88,1.88,0,0,0,305.08,79.11Z"/><path class="cls-5" d="M317.44,68A8.31,8.31,0,0,0,309,76.32v.06a8.24,8.24,0,0,0,8.43,8.23A8.31,8.31,0,1,0,317.44,68Zm-.06,3.76a4.35,4.35,0,0,1,4.33,4.56v.06a4.23,4.23,0,0,1-4.27,4.47,4.39,4.39,0,0,1-4.3-4.59A4.23,4.23,0,0,1,317.38,71.76Z"/><path class="cls-5" d="M346.94,68a6.32,6.32,0,0,0-5.08,2.41A5.2,5.2,0,0,0,337.24,68a5.49,5.49,0,0,0-4.31,2,2.1,2.1,0,0,0-4.18.27V82.32a2.1,2.1,0,0,0,4.2,0v-7c0-2.09,1.14-3.43,2.91-3.43s2.74,1.19,2.74,3.34v7.1a2.1,2.1,0,0,0,4.19,0v-7c0-2.15,1.09-3.43,2.91-3.43,2.26,0,2.74,1.83,2.74,3.37v7.07a2.1,2.1,0,0,0,4.2,0V74.18C352.64,70.31,350.51,68,346.94,68Z"/><path class="cls-5" d="M209.06,104a3,3,0,0,0-2.59,1.42V105a.88.88,0,1,0-1.75,0v8.33a.88.88,0,0,0,1.75,0V110.6a3.11,3.11,0,0,0,2.59,1.34,3.64,3.64,0,0,0,3.54-4v0A3.64,3.64,0,0,0,209.06,104Zm1.76,4a2.22,2.22,0,0,1-2.17,2.43,2.29,2.29,0,0,1-2.22-2.43v0a2.29,2.29,0,0,1,2.22-2.44,2.25,2.25,0,0,1,2.17,2.44Z"/><path class="cls-5" d="M217.63,104.06a2.42,2.42,0,0,0-1.92,1.68V105a.87.87,0,0,0-.88-.88.86.86,0,0,0-.86.88v6a.85.85,0,0,0,.86.86.87.87,0,0,0,.88-.86v-2.25c0-1.81.85-2.76,2.09-3a.83.83,0,0,0,.69-.84A.81.81,0,0,0,217.63,104.06Z"/><path class="cls-5" d="M222.88,104a4,4,0,0,0-4.07,4v0a4.06,4.06,0,0,0,8.12,0v0A3.94,3.94,0,0,0,222.88,104Zm2.31,4a2.29,2.29,0,0,1-2.31,2.41,2.34,2.34,0,0,1-2.32-2.43v0a2.29,2.29,0,0,1,2.29-2.43,2.36,2.36,0,0,1,2.34,2.46Z"/><path class="cls-5" d="M237.18,104a3,3,0,0,0-2.56,1.34,2.43,2.43,0,0,0-2.28-1.34,2.72,2.72,0,0,0-2.32,1.31V105a.88.88,0,1,0-1.75,0v6a.88.88,0,0,0,1.75,0v-3.51a1.66,1.66,0,0,1,1.63-1.89c1,0,1.54.67,1.54,1.85V111a.87.87,0,0,0,1.74,0v-3.51c0-1.22.68-1.89,1.63-1.89s1.55.65,1.55,1.86V111a.86.86,0,0,0,.88.86.84.84,0,0,0,.86-.86v-4.07C239.85,105.06,238.84,104,237.18,104Z"/><path class="cls-5" d="M245.19,104a4,4,0,0,0-4.07,4v0a4.06,4.06,0,0,0,8.12,0v0A3.94,3.94,0,0,0,245.19,104Zm2.3,4a2.28,2.28,0,0,1-2.3,2.41,2.34,2.34,0,0,1-2.32-2.43v0a2.29,2.29,0,0,1,2.29-2.43,2.35,2.35,0,0,1,2.33,2.46Z"/><path class="cls-5" d="M254.06,105.66a.75.75,0,1,0,0-1.49h-1.37v-1.3a.88.88,0,0,0-1.75,0v1.3h-.29a.75.75,0,1,0,0,1.49h.29v4a2,2,0,0,0,2.19,2.24,3.51,3.51,0,0,0,1.2-.2.76.76,0,0,0,.46-.68.73.73,0,0,0-.73-.72c-.06,0-.24,0-.44,0-.59,0-.93-.27-.93-.95v-3.74Z"/><path class="cls-5" d="M257,104.08a.86.86,0,0,0-.86.88v6a.87.87,0,0,0,1.74,0v-6A.87.87,0,0,0,257,104.08Z"/><path class="cls-5" d="M257,101.27a.89.89,0,0,0-1,.85v.08a1,1,0,0,0,2,0v-.08A.9.9,0,0,0,257,101.27Z"/><path class="cls-5" d="M263.41,104a4,4,0,0,0-4.06,4v0a3.93,3.93,0,0,0,4,3.94,4,4,0,0,0,4.08-4v0A4,4,0,0,0,263.41,104Zm2.31,4a2.28,2.28,0,0,1-2.31,2.41,2.35,2.35,0,0,1-2.32-2.43v0a2.29,2.29,0,0,1,2.3-2.43,2.35,2.35,0,0,1,2.33,2.46Z"/><path class="cls-5" d="M272.93,104a2.77,2.77,0,0,0-2.38,1.32V105a.87.87,0,0,0-.88-.88.86.86,0,0,0-.86.88v6a.87.87,0,0,0,1.74,0v-3.51a1.7,1.7,0,0,1,1.72-1.89c1,0,1.63.68,1.63,1.86V111a.86.86,0,0,0,.88.86.84.84,0,0,0,.86-.86v-4.07A2.6,2.6,0,0,0,272.93,104Z"/><path class="cls-5" d="M280.34,104.06a6.61,6.61,0,0,0-2.45.45.76.76,0,0,0-.47.69.72.72,0,0,0,.73.72,1,1,0,0,0,.28,0,4.43,4.43,0,0,1,1.68-.3c1.23,0,1.89.57,1.89,1.66v.18a6.55,6.55,0,0,0-2.05-.31c-1.85,0-3.14.8-3.14,2.45v0a2.43,2.43,0,0,0,2.7,2.35,3.09,3.09,0,0,0,2.48-1.11v.29a.79.79,0,0,0,.85.73.83.83,0,0,0,.85-.84v-3.75a3.14,3.14,0,0,0-.82-2.34A3.43,3.43,0,0,0,280.34,104.06Zm1.69,5c0,1-.88,1.63-2,1.63-.84,0-1.49-.42-1.49-1.16v0c0-.8.67-1.27,1.79-1.27a4.93,4.93,0,0,1,1.73.3Z"/><path class="cls-5" d="M286.31,101.18a.85.85,0,0,0-.86.86V111a.87.87,0,0,0,1.74,0V102A.86.86,0,0,0,286.31,101.18Z"/><path class="cls-5" d="M297.27,104a3,3,0,0,0-2.59,1.42V105a.88.88,0,1,0-1.75,0v8.33a.88.88,0,0,0,1.75,0V110.6a3.11,3.11,0,0,0,2.59,1.34,3.64,3.64,0,0,0,3.54-4v0A3.64,3.64,0,0,0,297.27,104Zm1.76,4a2.22,2.22,0,0,1-2.17,2.43,2.29,2.29,0,0,1-2.22-2.43v0a2.29,2.29,0,0,1,2.22-2.44A2.25,2.25,0,0,1,299,108Z"/><path class="cls-5" d="M305.84,104.06a2.42,2.42,0,0,0-1.92,1.68V105a.87.87,0,0,0-.88-.88.86.86,0,0,0-.86.88v6a.85.85,0,0,0,.86.86.87.87,0,0,0,.88-.86v-2.25c0-1.81.85-2.76,2.09-3a.83.83,0,0,0,.69-.84A.81.81,0,0,0,305.84,104.06Z"/><path class="cls-5" d="M311.09,104a4,4,0,0,0-4.07,4v0a4.06,4.06,0,0,0,8.12,0v0A3.94,3.94,0,0,0,311.09,104Zm2.31,4a2.29,2.29,0,0,1-2.31,2.41,2.34,2.34,0,0,1-2.32-2.43v0a2.29,2.29,0,0,1,2.29-2.43A2.36,2.36,0,0,1,313.4,108Z"/><path class="cls-5" d="M323.09,101.18a.86.86,0,0,0-.87.86v3.31a3.11,3.11,0,0,0-2.59-1.34,3.63,3.63,0,0,0-3.54,3.95v0a3.66,3.66,0,0,0,3.54,4,3,3,0,0,0,2.59-1.43V111a.88.88,0,0,0,1.75,0V102A.86.86,0,0,0,323.09,101.18Zm-.84,6.81a2.29,2.29,0,0,1-2.21,2.43,2.26,2.26,0,0,1-2.19-2.43v0a2.23,2.23,0,0,1,2.19-2.44,2.29,2.29,0,0,1,2.21,2.44Z"/><path class="cls-5" d="M331.61,104.08a.87.87,0,0,0-.88.88v3.5a1.69,1.69,0,0,1-1.72,1.88c-1,0-1.63-.67-1.63-1.85V105a.87.87,0,1,0-1.74,0V109a2.62,2.62,0,0,0,2.71,2.93,2.75,2.75,0,0,0,2.38-1.34V111a.88.88,0,0,0,1.76,0v-6A.89.89,0,0,0,331.61,104.08Z"/><path class="cls-5" d="M340,109.56a.73.73,0,0,0-.48.19,2.54,2.54,0,0,1-1.7.67,2.3,2.3,0,0,1-2.28-2.43v0a2.3,2.3,0,0,1,2.21-2.43,2.45,2.45,0,0,1,1.63.65.85.85,0,0,0,.52.18.8.8,0,0,0,.8-.8.85.85,0,0,0-.27-.6,3.87,3.87,0,0,0-2.67-.95,3.92,3.92,0,0,0-4,4v0a3.88,3.88,0,0,0,3.93,3.94,3.73,3.73,0,0,0,2.77-1.08.69.69,0,0,0,.25-.55A.76.76,0,0,0,340,109.56Z"/><path class="cls-5" d="M345.51,105.66a.75.75,0,1,0,0-1.49h-1.37v-1.3a.87.87,0,1,0-1.74,0v1.3h-.29a.75.75,0,1,0,0,1.49h.29v4a2,2,0,0,0,2.19,2.24,3.41,3.41,0,0,0,1.19-.2.75.75,0,0,0,.47-.68.73.73,0,0,0-.74-.72c-.06,0-.23,0-.43,0a.83.83,0,0,1-.94-.95v-3.74Z"/><path class="cls-5" d="M350.6,107.28c-.89-.29-1.72-.52-1.72-1.08v0c0-.43.39-.75,1.07-.75a4.1,4.1,0,0,1,1.79.52.68.68,0,0,0,.35.09.71.71,0,0,0,.72-.71.75.75,0,0,0-.42-.66A5.26,5.26,0,0,0,350,104a2.43,2.43,0,0,0-2.71,2.32v0c0,1.45,1.26,1.91,2.38,2.23.9.27,1.7.48,1.7,1.07v0c0,.5-.43.82-1.18.82a4,4,0,0,1-2.19-.74.84.84,0,0,0-.37-.1.7.7,0,0,0-.71.71.65.65,0,0,0,.33.6,5.17,5.17,0,0,0,2.9.91c1.59,0,2.83-.79,2.83-2.39v0C353,108.13,351.71,107.63,350.6,107.28Z"/><path class="cls-5" d="M94.12,101.73a4.59,4.59,0,0,0-3.37,1.49v-.09a1.13,1.13,0,0,0-.25-.92,1.12,1.12,0,0,0-.88-.39,1.49,1.49,0,0,0-1.43,1.26l-1.58,10.61a1.12,1.12,0,0,0,.25.91,1.13,1.13,0,0,0,.86.38,1.49,1.49,0,0,0,1.46-1.24l.45-3a3.48,3.48,0,0,0,3,1.44,5.73,5.73,0,0,0,5.46-5.2,4.68,4.68,0,0,0-.92-3.89A4,4,0,0,0,94.12,101.73Zm1.36,5.17v0a3.27,3.27,0,0,1-3.1,3,2.24,2.24,0,0,1-1.71-.75,2.71,2.71,0,0,1-.52-2.2,3.38,3.38,0,0,1,3.16-3,2.13,2.13,0,0,1,1.66.73A2.69,2.69,0,0,1,95.48,106.9Z"/><path class="cls-5" d="M104.68,101.73A5.94,5.94,0,0,0,99,107a4.59,4.59,0,0,0,.93,3.75,4.51,4.51,0,0,0,3.51,1.47,6,6,0,0,0,3.82-1.33,1.33,1.33,0,0,0,.45-.77,1,1,0,0,0-.2-.78.92.92,0,0,0-.71-.31,1.13,1.13,0,0,0-.7.23,3.93,3.93,0,0,1-2.35.82,2.09,2.09,0,0,1-2.29-2.14h6a1.41,1.41,0,0,0,1.38-1.2,4.6,4.6,0,0,0-.94-3.64A4,4,0,0,0,104.68,101.73Zm-.29,2.14a1.84,1.84,0,0,1,1.38.53,2.44,2.44,0,0,1,.57,1.7h-4.65A3,3,0,0,1,104.39,103.87Z"/><path class="cls-5" d="M116.89,103.09a1,1,0,0,0-1.11-1.29,3.47,3.47,0,0,0-2.52,1.6l0-.27a1.13,1.13,0,0,0-.25-.92,1.11,1.11,0,0,0-.87-.39,1.49,1.49,0,0,0-1.44,1.26l-1.14,7.67a1.11,1.11,0,0,0,.25.91,1.09,1.09,0,0,0,.86.38,1.53,1.53,0,0,0,1.46-1.24l.42-2.86c.31-2.07,1.41-3.36,3.12-3.65A1.42,1.42,0,0,0,116.89,103.09Z"/><path class="cls-5" d="M124.39,102.58a6.29,6.29,0,0,0-3-.81,3.87,3.87,0,0,0-4.09,3.13c-.32,2.13,1.68,2.71,2.75,3l.22.07c1.08.34,1.74.57,1.65,1.15s-.65.91-1.52.91a4.4,4.4,0,0,1-2.59-.92,1.06,1.06,0,0,0-.55-.15,1.23,1.23,0,0,0-1.2,1,.9.9,0,0,0,.38.93,6.19,6.19,0,0,0,3.65,1.18c2.33,0,4-1.22,4.25-3.22s-1.67-2.66-2.73-3l-.18-.06c-1-.32-1.8-.6-1.71-1.18s.6-.82,1.35-.82a4.62,4.62,0,0,1,2.13.65,1,1,0,0,0,.5.12,1.22,1.22,0,0,0,1.22-1A.93.93,0,0,0,124.39,102.58Z"/><path class="cls-5" d="M131.61,101.73a6.28,6.28,0,0,0-6.14,5.2v0a4.47,4.47,0,0,0,1,3.66,4.67,4.67,0,0,0,3.63,1.54,6.28,6.28,0,0,0,6.16-5.22,4.48,4.48,0,0,0-1-3.67A4.69,4.69,0,0,0,131.61,101.73Zm2.06,5.2v0a3.34,3.34,0,0,1-3.27,2.93,2.37,2.37,0,0,1-1.82-.78A2.65,2.65,0,0,1,128,107a3.35,3.35,0,0,1,3.25-3,2.35,2.35,0,0,1,1.84.78A2.64,2.64,0,0,1,133.67,106.93Z"/><path class="cls-5" d="M143.86,101.73a4.21,4.21,0,0,0-3.08,1.35,1.11,1.11,0,0,0-.25-.87,1.12,1.12,0,0,0-.88-.39,1.5,1.5,0,0,0-1.44,1.26l-1.13,7.67a1.09,1.09,0,0,0,1.11,1.29,1.48,1.48,0,0,0,1.45-1.24l.66-4.46a2.44,2.44,0,0,1,2.41-2.27,1.63,1.63,0,0,1,1.27.48,2.15,2.15,0,0,1,.31,1.71l-.66,4.49a1.11,1.11,0,0,0,.24.91,1.17,1.17,0,0,0,.89.38,1.45,1.45,0,0,0,1.43-1.24l.77-5.18a3.54,3.54,0,0,0-.64-2.92A3.13,3.13,0,0,0,143.86,101.73Z"/><path class="cls-5" d="M153.39,101.8a9.45,9.45,0,0,0-3.3.58,1.38,1.38,0,0,0-.85,1,1,1,0,0,0,1,1.11,1.4,1.4,0,0,0,.41-.07,6.27,6.27,0,0,1,2.17-.38,2.15,2.15,0,0,1,1.68.56,1.66,1.66,0,0,1,.28,1.37v0a8,8,0,0,0-2.44-.35c-2.62,0-4.36,1.22-4.67,3.26v0a2.56,2.56,0,0,0,.55,2.15,3.46,3.46,0,0,0,2.64,1A4.85,4.85,0,0,0,154,111a1,1,0,0,0,.23.67,1.14,1.14,0,0,0,.9.37,1.45,1.45,0,0,0,1.41-1.2l.71-4.78a3.71,3.71,0,0,0-.65-3.11A4.05,4.05,0,0,0,153.39,101.8Zm-1.69,8.41a1.73,1.73,0,0,1-1.33-.47,1,1,0,0,1-.2-.85c.13-.92,1-1.48,2.38-1.48a5.72,5.72,0,0,1,2,.33l-.08.54A2.6,2.6,0,0,1,151.7,110.21Z"/><path class="cls-5" d="M161.61,98.13a1.5,1.5,0,0,0-1.44,1.24l-1.68,11.38A1.09,1.09,0,0,0,159.6,112a1.48,1.48,0,0,0,1.45-1.24l1.69-11.38a1.1,1.1,0,0,0-.25-.9A1.14,1.14,0,0,0,161.61,98.13Z"/><path class="cls-5" d="M167.62,99.51a1,1,0,0,0-.22-.85,1.36,1.36,0,0,0-1.06-.42,1.53,1.53,0,0,0-1.6,1.22v.12a1,1,0,0,0,.23.86,1.33,1.33,0,0,0,1,.42,1.55,1.55,0,0,0,1.61-1.24Z"/><path class="cls-5" d="M165.81,101.82a1.5,1.5,0,0,0-1.44,1.26l-1.13,7.67a1.09,1.09,0,0,0,1.11,1.29,1.48,1.48,0,0,0,1.45-1.24l1.14-7.67a1.13,1.13,0,0,0-.25-.92A1.12,1.12,0,0,0,165.81,101.82Z"/><path class="cls-5" d="M177.45,103.05v0a.87.87,0,0,0-.19-.7,1.18,1.18,0,0,0-.92-.37H169.9a1.27,1.27,0,0,0-1.23,1.06,1,1,0,0,0,.21.76,1,1,0,0,0,.75.32h4.22l-5.79,5.6a1.76,1.76,0,0,0-.71,1.16v0a.88.88,0,0,0,.2.72,1.18,1.18,0,0,0,.92.37h6.64a1.26,1.26,0,0,0,1.23-1,1,1,0,0,0-.21-.78,1,1,0,0,0-.75-.32H171l5.81-5.6A1.86,1.86,0,0,0,177.45,103.05Z"/><path class="cls-5" d="M183.14,101.73a5.94,5.94,0,0,0-5.7,5.22,4.59,4.59,0,0,0,.93,3.75,4.51,4.51,0,0,0,3.51,1.47,5.93,5.93,0,0,0,3.82-1.33,1.24,1.24,0,0,0,.45-.77.9.9,0,0,0-.91-1.09,1.15,1.15,0,0,0-.7.23,3.93,3.93,0,0,1-2.35.82,2.1,2.1,0,0,1-2.29-2.14h6a1.41,1.41,0,0,0,1.38-1.2,4.6,4.6,0,0,0-.94-3.64A4,4,0,0,0,183.14,101.73Zm-.29,2.14a1.82,1.82,0,0,1,1.38.53,2.44,2.44,0,0,1,.57,1.7h-4.65A3,3,0,0,1,182.85,103.87Z"/><path class="cls-5" d="M199.45,98.52a1.12,1.12,0,0,0-.88-.39,1.49,1.49,0,0,0-1.44,1.24l-.56,3.8a3.51,3.51,0,0,0-3-1.44,5.72,5.72,0,0,0-5.45,5.21,4.6,4.6,0,0,0,.92,3.87,3.9,3.9,0,0,0,3,1.34,4.62,4.62,0,0,0,3.37-1.49v.09a1.11,1.11,0,0,0,.24.91,1.17,1.17,0,0,0,.89.38A1.47,1.47,0,0,0,198,110.8l1.69-11.38A1.1,1.1,0,0,0,199.45,98.52Zm-6.54,11.38a2.18,2.18,0,0,1-1.68-.73,2.71,2.71,0,0,1-.52-2.19v0a3.24,3.24,0,0,1,3.12-3,2.21,2.21,0,0,1,1.69.75,2.69,2.69,0,0,1,.52,2.21A3.37,3.37,0,0,1,192.91,109.9Z"/></svg>