<svg width="15" height="15" viewBox="0 0 15 15" fill="none" xmlns="http://www.w3.org/2000/svg">
    <path d="M0.275083 7.94171L7.60842 0.608374C7.79175 0.425041 7.97508 0.333374 8.25008 0.333374H13.7501C14.3001 0.333374 14.6667 0.700041 14.6667 1.25004V6.75004C14.6667 7.02504 14.5751 7.20837 14.3917 7.39171L7.05841 14.725C6.87508 14.9084 6.69175 15 6.41675 15C6.14175 15 5.95842 14.9084 5.77508 14.725L0.275083 9.22504C-0.0915842 8.85837 -0.0915842 8.30837 0.275083 7.94171ZM11.0001 4.91671C11.5501 4.91671 11.9167 4.55004 11.9167 4.00004C11.9167 3.45004 11.5501 3.08337 11.0001 3.08337C10.4501 3.08337 10.0834 3.45004 10.0834 4.00004C10.0834 4.55004 10.4501 4.91671 11.0001 4.91671Z" fill="#0A1F8F"/>
</svg>
